<?xml version="1.0" encoding="utf-8"?>
<!-- Generator: Adobe Illustrator 18.0.0, SVG Export Plug-In . SVG Version: 6.00 Build 0)  -->
<!DOCTYPE svg PUBLIC "-//W3C//DTD SVG 1.1//EN" "http://www.w3.org/Graphics/SVG/1.1/DTD/svg11.dtd">
<svg version="1.1" id="Layer_1" xmlns="http://www.w3.org/2000/svg" xmlns:xlink="http://www.w3.org/1999/xlink" x="0px" y="0px"
	 viewBox="0 0 1000 1000" enable-background="new 0 0 1000 1000" xml:space="preserve">
<g>
	<linearGradient id="SVGID_1_" gradientUnits="userSpaceOnUse" x1="443.7052" y1="261.7975" x2="662.998" y2="595.958">
		<stop  offset="0" style="stop-color:#986188;stop-opacity:0.5"/>
		<stop  offset="1" style="stop-color:#986188;stop-opacity:0"/>
	</linearGradient>
	<path fill="url(#SVGID_1_)" d="M782.2,273.8L585.8,160.3c-26,8.3-56.4,19-85.9,31.7c-57.1,24.6-110.8,56.9-122.3,93.9
		c-25.5,81.7,50.7,83.7,122.3,91c46.6,4.7,91.3,11.7,104.9,44.3c28.1,67.3-104.9,81.7-104.9,81.7v369.4c19.1,0,38.1-5.1,54.7-14.7
		l227.5-131.5c33.7-19.5,54.7-55.8,54.7-94.8V368.6C836.7,329.5,815.7,293.2,782.2,273.8z"/>
	<path fill="#986188" d="M855.1,219.2L565.8,52.1c-19.9-11.5-42.7-17.6-65.7-17.6c-23,0-45.8,6.1-65.9,17.6L144.9,219.2
		c-40.6,23.5-65.8,67.1-65.8,113.9v333.8c0,46.8,25.2,90.4,65.8,113.9l289.3,167.1c19.9,11.5,42.7,17.6,65.7,17.6
		c23,0,45.8-6.1,65.9-17.6l289.3-167.1c40.6-23.5,65.8-67.1,65.8-113.9V333.1C920.7,286.1,895.4,242.5,855.1,219.2z M855.7,638.6
		c0,41.1-22.1,79.4-57.7,100L557.7,877.3c-17.6,10.1-37.6,15.5-57.8,15.5c-20.2,0-40.2-5.3-57.7-15.5L202,738.6
		c-35.6-20.6-57.7-58.9-57.7-100V361.4c0-41.1,22.1-79.4,57.7-100l240.2-138.7c17.6-10.1,37.6-15.5,57.8-15.5
		c20.2,0,40.2,5.3,57.7,15.5L798,261.4c35.4,20.5,57.5,58.8,57.7,99.9V638.6z"/>
	<path opacity="0.4" fill="#986188" d="M593.3,661.7l-93.9-79.3L406,661.8L163.1,514.3v118.2c0,38.3,20.5,73.6,53.6,92.8l82.5,47.7
		l0,0l147.2,85c33.1,19.1,73.9,19.1,107.2,0l147.2-85l0,0l82.5-47.7c33.1-19.1,53.6-54.5,53.6-92.8V514.3L593.3,661.7z"/>
	<polygon fill="#986188" points="499.4,582.4 299.2,752.6 532.6,610.6 	"/>
	<polygon fill="#986188" points="499.4,582.4 699.6,752.6 466,610.6 	"/>
	<polygon fill="#986188" points="410,664 404.4,667.5 163.1,554 163.1,514.3 	"/>
	<polygon fill="#986188" points="590,664 595.6,667.5 836.9,554 836.9,514.3 	"/>
	<g>
		<path fill="#986188" d="M500,502.9c0,0,80.2-12.6,100.6-47.1c5.9-9.9,6.2-20.8,1-33.3c-14-33.7-65.4-38.7-115-43.5
			c-47.1-4.6-91.7-8.9-109.7-36c-9.5-14.4-10.4-33.4-2.7-58.2c8-25.8,36.2-51.6,83.7-76.7c33.8-17.9,77.5-31.8,127.9-47.8l0,0
			c-69.4,22.1-187.5,70.9-204.8,126.6c-7.1,22.7-6.5,39.8,1.8,52.3c16.1,24.3,61.1,28.7,104.5,32.9c51.7,5,105.1,10.2,120.8,47.7
			c6,14.4,5.5,27.7-1.5,39.5C584.4,496.9,503.4,502.5,500,502.9z"/>
	</g>
</g>
</svg>
